# AST/ASF file generated using VICON BodyLanguage
# -----------------------------------------------
:version 1.10
:name VICON
:units
  mass 1.0
  length 0.45
  angle deg
:documentation
   .ast/.asf automatically generated from VICON data using
   VICON BodyBuilder and BodyLanguage model FoxedUp or BRILLIANT.MOD
:root
   order TX TY TZ RX RY RZ
   axis XYZ
   position 0 0 0  
   orientation 0 0 0 
:bonedata
  begin
     id 1 
     name lhipjoint
     direction 0.64773 -0.699417 0.302095 
     length 2.48597 
     axis 0 0 0  XYZ
  end
  begin
     id 2 
     name lfemur
     direction 0.34202 -0.939693 0  
     length 6.71947  
     axis 0 0 20  XYZ
    dof rx ry rz
    limits (-160.0 20.0)
           (-70.0 70.0)
           (-60.0 70.0)
  end
  begin
     id 3 
     name ltibia
     direction 0.34202 -0.939693 0   
     length 8.08777   
     axis 0 0 20   XYZ
    dof rx
    limits (-10.0 170.0)
  end
  begin
     id 4 
     name lfoot
     direction 0.0808503 -0.222134 0.971658   
     length 2.08264   
     axis -90 7.62852e-016 20   XYZ
    dof rx rz
    limits (-45.0 90.0)
           (-70.0 20.0)
  end
  begin
     id 5 
     name ltoes
     direction 1.53502e-011 -4.22007e-011 1   
     length 1.04662   
     axis -90 7.62852e-016 20   XYZ
    dof rx
    limits (-90.0 20.0)
  end
  begin
     id 6 
     name rhipjoint
     direction -0.610924 -0.726792 0.313919   
     length 2.39233  
     axis 0 0 0  XYZ 
  end
  begin
     id 7 
     name rfemur
     direction -0.34202 -0.939693 0   
     length 6.96955   
     axis 0 0 -20   XYZ
    dof rx ry rz
    limits (-160.0 20.0)
           (-70.0 70.0)
           (-70.0 60.0)
  end
  begin
     id 8 
     name rtibia
     direction -0.34202 -0.939693 0   
     length 8.19584   
     axis 0 0 -20   XYZ
    dof rx
    limits (-10.0 170.0)
 end
 begin
     id 9 
     name rfoot
     direction -0.077777 -0.213691 0.9738   
     length 2.07539  
     axis -90 -7.62852e-016 -20   XYZ
    dof rx rz
    limits (-45.0 90.0)
           (-20.0 70.0)
  end
  begin
     id 10 
     name rtoes
     direction -1.53558e-011 -4.22006e-011 1   
     length 1.04381   
     axis -90 -7.62852e-016 -20   XYZ
    dof rx
    limits (-90.0 20.0)
  end
  begin
     id 11 
     name lowerback
     direction -0.00971646 0.996074 0.0879841   
     length 1.67643   
     axis 0 0 0   XYZ
    dof rx ry rz
    limits (-20.0 45.0)
           (-30.0 30.0)
           (-30.0 30.0)
  end
  begin
     id 12 
     name upperback
     direction 0.0127391 0.991676 0.128127   
     length 1.63741   
     axis 0 0 0   XYZ
    dof rx ry rz
    limits (-20.0 45.0)
           (-30.0 30.0)
           (-30.0 30.0)
  end
  begin
     id 13 
     name thorax
     direction 0.0167583 0.996049 0.0872067   
     length 1.65931   
     axis 0 0 0   XYZ
    dof rx ry rz
    limits (-20.0 45.0)
           (-30.0 30.0)
           (-30.0 30.0)
  end
  begin
     id 14 
     name lowerneck
     direction -0.0317829 0.998312 0.0486079   
     length 1.79021   
     axis 0 0 0   XYZ
    dof rx ry rz
    limits (-20.0 45.0)
           (-30.0 30.0)
           (-30.0 30.0)
  end
  begin
     id 15 
     name upperneck
     direction 0.0896851 0.972452 -0.215159   
     length 1.78797   
     axis 0 0 0   XYZ
    dof rx ry rz
    limits (-20.0 45.0)
           (-30.0 30.0)
           (-30.0 30.0)
  end
  begin
     id 16
     name head
     direction 0.0310949 0.996503 -0.0775582  
     length 1.81549  
     axis 0 0 0   XYZ
    dof rx ry rz
    limits (-20.0 45.0)
           (-30.0 30.0)
           (-30.0 30.0)
  end
  begin
     id 17 
     name lclavicle
     direction 0.853638 0.502051 -0.138733  
     length 3.31627  
     axis 0 0 0   XYZ
    dof ry rz
    limits (-20.0 10.0)
           (0.0 20.0)
  end
  begin
     id 18 
     name lhumerus
     direction 1 -4.48962e-011 -1.41788e-018   
     length 5.54893   
     axis 180 -30 -90   XYZ
    dof rx ry rz
    limits (-60.0 90.0)
           (-90.0 90.0)
           (-90.0 90.0)
  end
  begin
     id 19
     name lradius
     direction 1 -4.48962e-011 -4.95754e-027   
     length 3.02898   
     axis 180 -30 -90   XYZ
    dof rx
    limits (-10.0 170.0)
  end
  begin
     id 20
     name lwrist
     direction 1 -4.48952e-011 -1.03764e-026   
     length 1.51449   
     axis 9.09556e-015 90 90   XYZ
    dof ry
    limits (-180.0 0.0)
 end
  begin
     id 21 
     name lhand
     direction 1 -4.4902e-011 -2.07528e-026   
     length 0.640951   
     axis 1.3242e-014 90 90   XYZ
    dof rx rz
    limits (-90.0 90.0)
           (-45.0 45.0)
  end
  begin
     id 22 
     name lfingers
     direction 1 -4.49014e-011 -4.15056e-026   
     length 0.516751   
     axis 2.64841e-014 90 90   XYZ
    dof rx
    limits (0.0 90.0)
  end
  begin
     id 23
     name lthumb
     direction 0.707107 -6.35008e-011 0.707107   
     length 0.741954   
     axis -90 45 2.85299e-015   XYZ
    dof rx rz
    limits (-45.0 45.0)
           (-45.0 45.0)
  end
  begin
     id 24 
     name rclavicle
     direction -0.888531 0.455324 -0.0565039   
     length 3.20126  
     axis 0 0 0   XYZ 
    dof ry rz
    limits (-10.0 20.0)
           (-20.0 0.0)
  end
  begin
     id 25 
     name rhumerus
     direction -1 -4.48946e-011 -8.98298e-028  
     length 5.3519   
     axis 180 30 90   XYZ
    dof rx ry rz
    limits (-90.0 60.0)
           (-90.0 90.0)
           (-90.0 90.0)
  end
  begin
     id 26 
     name rradius
     direction -1 -4.4899e-011 -3.18779e-027   
     length 3.02531   
     axis 180 30 90   XYZ
    dof rx
    limits (-10.0 170.0)
  end
  begin
     id 27 
     name rwrist
     direction -1 -4.4897e-011 -1.03764e-026   
     length 1.51266   
     axis 9.09556e-015 -90 -90   XYZ
    dof ry
    limits (-180.0 0.0)
  end
  begin
     id 28
     name rhand
     direction -1 -4.48941e-011 -2.07528e-026   
     length 0.78389   
     axis 1.3242e-014 -90 -90   XYZ
    dof rx rz
    limits (-90.0 90.0)
           (-45.0 45.0)
  end
  begin
     id 29
     name rfingers
     direction -1 -4.49012e-011 -4.15056e-026   
     length 0.631992   
     axis 2.64841e-014 -90 -90   XYZ
    dof rx
    limits (0.0 90.0)
  end
  begin
     id 30
     name rthumb
     direction -0.707107 -6.3496e-011 0.707107   
     length 0.907418   
     axis -90 -45 -2.85299e-015   XYZ
    dof rx rz
    limits (-45.0 45.0)
           (-45.0 45.0)
  end
:hierarchy
  begin
    root lhipjoint rhipjoint lowerback
    lhipjoint lfemur
    lfemur ltibia
    ltibia lfoot
    lfoot ltoes
    rhipjoint rfemur
    rfemur rtibia
    rtibia rfoot
    rfoot rtoes
    lowerback upperback
    upperback thorax
    thorax lowerneck lclavicle rclavicle
    lowerneck upperneck
    upperneck head
    lclavicle lhumerus
    lhumerus lradius
    lradius lwrist
    lwrist lhand lthumb
    lhand lfingers
    rclavicle rhumerus
    rhumerus rradius
    rradius rwrist
    rwrist rhand rthumb
    rhand rfingers
  end

#!OML:ASF E:\Style3\Style3.ASF
:FULLY-SPECIFIED
:DEGREES
802
root 0.201724 17.8636 0.645264 34.3088 92.5203 18.9842
lowerback -11.2606 -2.82712 -0.806258
upperback -11.8555 -2.88869 2.31533
thorax -6.04888 -0.97204 2.68379
lowerneck -9.30605 -2.79414 -6.5019
upperneck 26.2395 -4.12978 7.8367
head 10.1592 -1.42805 3.46867
rclavicle 2.127e-014 -2.78299e-015
rhumerus 14.9003 32.6792 -52.7032
rradius 87.0626
rwrist -1.021
rhand -1.48606 6.30676
rfingers 7.12502
rthumb 24.1662 -22.1909
lclavicle 2.127e-014 -2.78299e-015
lhumerus -0.0930479 -33.9729 68.4849
lradius 76.9465
lwrist -8.18122
lhand -18.6122 35.1112
lfingers 7.12502
lthumb 7.67951 64.9517
rfemur -14.6499 11.9038 18.5923
rtibia 14.3109
rfoot -14.3839 -22.7197
rtoes -13.0287
lfemur 0 0 0
ltibia 0
lfoot 0 0
ltoes 0
803
root 0.193992 17.8644 0.640573 31.8394 92.654 16.5488
lowerback -11.2563 -2.86527 -0.753479
upperback -11.8567 -2.94115 2.33175
thorax -6.05155 -1.00118 2.66854
lowerneck -9.25444 -2.73335 -6.44319
upperneck 26.1967 -4.01546 7.68226
head 10.1194 -1.38848 3.41489
rclavicle 1.20265e-014 -5.1684e-015
rhumerus 16.0329 31.5314 -52.3049
rradius 87.5065
rwrist -0.541268
rhand -1.47914 6.28333
rfingers 7.12502
rthumb 24.1729 -22.2134
lclavicle 1.20265e-014 -5.1684e-015
lhumerus 0.226967 -35.1742 68.6053
lradius 74.8298
lwrist -7.14908
lhand -18.1492 35.5059
lfingers 7.12502
lthumb 8.12629 65.3296
rfemur -14.6093 11.7862 18.5538
rtibia 14.2986
rfoot -14.3278 -22.7917
rtoes -13.1335
lfemur 0 0 0
ltibia 0
lfoot 0 0
ltoes 0
804
root 0.191786 17.8647 0.636634 31.7653 92.8001 16.5223
lowerback -11.3498 -2.86159 -0.636671
upperback -11.7884 -2.94515 2.38817
thorax -5.92784 -1.01252 2.65661
lowerneck -9.40642 -2.72997 -6.4763
upperneck 26.2577 -3.97038 7.56315
head 10.1662 -1.38179 3.38378
rclavicle 4.24405e-014 1.82882e-014
rhumerus 17.1394 30.3669 -51.9136
rradius 87.8908
rwrist 0.0906589
rhand -1.55851 6.23271
rfingers 7.12502
rthumb 24.0968 -22.2742
lclavicle 4.24405e-014 1.82882e-014
lhumerus 0.573884 -36.4973 68.6555
lradius 72.7255
lwrist -5.58303
lhand -17.7778 35.7703
lfingers 7.12502
lthumb 8.48477 65.5799
rfemur -14.5321 11.8156 18.6196
rtibia 14.2977
rfoot -14.3476 -22.9388
rtoes -13.2143
lfemur 0 0 0
ltibia 0
lfoot 0 0
ltoes 0
805
root 0.191068 17.8642 0.63381 32.807 92.918 17.6654
lowerback -11.4021 -2.84088 -0.47521
upperback -11.6947 -2.93422 2.43448
thorax -5.80213 -1.0216 2.61103
lowerneck -9.5395 -2.7031 -6.4158
upperneck 26.266 -3.90028 7.40485
head 10.1854 -1.36031 3.3237
rclavicle 1.22253e-014 -1.03368e-014
rhumerus 18.2282 29.2649 -51.698
rradius 88.266
rwrist 0.620577
rhand -1.59299 5.80885
rfingers 7.12502
rthumb 24.0637 -22.7024
lclavicle 1.22253e-014 -1.03368e-014
lhumerus 0.883226 -38.0898 68.6317
lradius 70.6697
lwrist -3.65392
lhand -17.8597 35.9106
lfingers 7.12502
lthumb 8.40578 65.7233
rfemur -14.3894 11.9116 18.7371
rtibia 14.28
rfoot -14.3968 -23.0975
rtoes -13.0877
lfemur 0 0 0
ltibia 0
lfoot 0 0
ltoes 0
806
root 0.189987 17.863 0.629768 31.2299 92.9058 16.1749
lowerback -11.4279 -2.81277 -0.471652
upperback -11.6205 -2.90578 2.40601
thorax -5.70908 -1.0133 2.5777
lowerneck -9.73412 -2.67626 -6.29916
upperneck 26.3248 -3.85028 7.28595
head 10.2362 -1.33605 3.26701
rclavicle -2.51463e-014 2.50469e-014
rhumerus 19.1772 28.1903 -51.5297
rradius 88.7059
rwrist 0.912983
rhand -1.45122 5.52349
rfingers 7.12502
rthumb 24.1996 -22.9697
lclavicle -2.51463e-014 2.50469e-014
lhumerus 1.12893 -39.857 68.555
lradius 68.8621
lwrist -1.1919
lhand -17.9595 36.1222
lfingers 7.12502
lthumb 8.30946 65.9388
rfemur -14.2631 11.925 18.6578
rtibia 14.2361
rfoot -14.369 -23.1429
rtoes -13.0051
lfemur 0 0 0
ltibia 0
lfoot 0 0
ltoes 0
807
root 0.188425 17.863 0.62569 30.2273 92.9421 15.2143
lowerback -11.4561 -2.85792 -0.434837
upperback -11.5798 -2.97132 2.43947
thorax -5.64592 -1.04999 2.5856
lowerneck -9.90823 -2.60009 -6.19796
upperneck 26.3826 -3.72035 7.13603
head 10.2761 -1.28089 3.21132
rclavicle 3.52843e-014 -1.27222e-014
rhumerus 20.1854 27.3514 -51.3106
rradius 88.9756
rwrist 1.30793
rhand -1.66234 5.70793
rfingers 7.12502
rthumb 23.9972 -22.8121
lclavicle 3.52843e-014 -1.27222e-014
lhumerus 1.10897 -41.3207 68.5643
lradius 67.3539
lwrist 1.34321
lhand -17.9414 36.3615
lfingers 7.12502
lthumb 8.3269 66.1774
rfemur -14.2064 11.9372 18.614
rtibia 14.2303
rfoot -14.3886 -23.1712
rtoes -12.6501
lfemur 0 0 0
ltibia 0
lfoot 0 0
ltoes 0
808
root 0.187298 17.864 0.620204 30.1376 92.9701 15.1207
lowerback -11.482 -2.88552 -0.332594
upperback -11.5715 -3.01332 2.48954
thorax -5.62354 -1.07648 2.57708
lowerneck -10.028 -2.53514 -6.18413
upperneck 26.4028 -3.60522 7.04585
head 10.296 -1.23599 3.18994
rclavicle -7.05686e-015 9.93923e-015
rhumerus 21.1009 26.6236 -51.1147
rradius 89.2271
rwrist 1.90271
rhand -2.22107 5.90783
rfingers 7.12502
rthumb 23.4613 -22.6817
lclavicle -7.05686e-015 9.93923e-015
lhumerus 1.05675 -42.5836 68.7303
lradius 65.8249
lwrist 3.30701
lhand -16.9329 36.5264
lfingers 7.12502
lthumb 9.30006 66.3013
rfemur -14.2363 11.8519 18.6076
rtibia 14.2755
rfoot -14.3943 -23.1256
rtoes -12.7145
lfemur 0 0 0
ltibia 0
lfoot 0 0
ltoes 0
809
root 0.184601 17.865 0.616289 29.4636 92.9735 14.4423
lowerback -11.4643 -2.90619 -0.308557
upperback -11.5879 -3.0398 2.51945
thorax -5.64982 -1.08928 2.59462
lowerneck -10.1192 -2.48466 -6.15157
upperneck 26.47 -3.52459 6.9947
head 10.3306 -1.19923 3.17697
rclavicle -2.16675e-014 -1.31198e-014
rhumerus 21.8859 25.9817 -51.0644
rradius 89.4486
rwrist 2.67554
rhand -2.75201 5.60315
rfingers 7.12502
rthumb 22.9519 -23.0506
lclavicle -2.16675e-014 -1.31198e-014
lhumerus 1.02548 -43.8697 68.8597
lradius 64.3992
lwrist 4.41572
lhand -15.389 36.8667
lfingers 7.12502
lthumb 10.7895 66.5696
rfemur -14.2614 12.0351 18.5369
rtibia 14.2934
rfoot -14.4224 -23.3227
rtoes -12.9141
lfemur 0 0 0
ltibia 0
lfoot 0 0
ltoes 0
810
root 0.18234 17.8643 0.6123 29.1595 92.9879 14.1507
lowerback -11.4252 -2.91917 -0.245418
upperback -11.5991 -3.05922 2.55269
thorax -5.68441 -1.10143 2.59513
lowerneck -10.2396 -2.44124 -6.09173
upperneck 26.5416 -3.44116 6.87395
head 10.3709 -1.16645 3.13437
rclavicle -3.22031e-014 -8.74653e-015
rhumerus 22.6627 25.3808 -50.9461
rradius 89.7664
rwrist 3.01316
rhand -2.74134 5.34228
rfingers 7.12502
rthumb 22.9622 -23.3102
lclavicle -3.22031e-014 -8.74653e-015
lhumerus 0.896572 -45.1551 69.0115
lradius 63.1593
lwrist 5.12377
lhand -13.9432 37
lfingers 7.12502
lthumb 12.1839 66.6252
rfemur -14.2684 12.0777 18.512
rtibia 14.3187
rfoot -14.4753 -23.3652
rtoes -13.0612
lfemur 0 0 0
ltibia 0
lfoot 0 0
ltoes 0
811
root 0.181333 17.8653 0.608796 28.7168 92.9699 13.7223
lowerback -11.3932 -2.95173 -0.225765
upperback -11.6055 -3.10254 2.59409
thorax -5.7059 -1.12272 2.62647
lowerneck -10.3419 -2.37287 -5.96093
upperneck 26.5563 -3.31978 6.68331
head 10.3816 -1.11902 3.0571
rclavicle -1.07344e-014 -7.15625e-015
rhumerus 23.3812 24.8434 -50.9188
rradius 90.0478
rwrist 3.19341
rhand -2.56468 5.1555
rfingers 7.12502
rthumb 23.1317 -23.4758
lclavicle -1.07344e-014 -7.15625e-015
lhumerus 0.571426 -46.1978 69.2455
lradius 62.1098
lwrist 5.2848
lhand -10.7757 37.5185
lfingers 7.12502
lthumb 15.2366 66.9374
rfemur -14.2723 12.0095 18.4794
rtibia 14.3446
rfoot -14.5539 -23.2645
rtoes -12.8303
lfemur 0 0 0
ltibia 0
lfoot 0 0
ltoes 0
812
root 0.183666 17.8668 0.608012 28.4973 92.9347 13.5005
lowerback -11.4334 -2.96858 -0.229942
upperback -11.6028 -3.12346 2.62546
thorax -5.67819 -1.13175 2.65856
lowerneck -10.4179 -2.30528 -5.84082
upperneck 26.5485 -3.21972 6.57733
head 10.3822 -1.07308 3.00941
rclavicle 1.22253e-014 -8.34896e-015
rhumerus 23.9871 24.313 -50.9571
rradius 90.2559
rwrist 3.38153
rhand -2.32896 4.88619
rfingers 7.12502
rthumb 23.3578 -23.7165
lclavicle 1.22253e-014 -8.34896e-015
lhumerus 0.272214 -47.1297 69.4797
lradius 61.1266
lwrist 5.09921
lhand -10.2803 36.8558
lfingers 7.12502
lthumb 15.7137 66.2379
rfemur -14.2753 12.051 18.4508
rtibia 14.3606
rfoot -14.5965 -23.2899
rtoes -12.7032
lfemur 0 0 0
ltibia 0
lfoot 0 0
ltoes 0
813
root 0.184251 17.865 0.607886 28.5977 92.9359 13.5953
lowerback -11.448 -3.00758 -0.205693
upperback -11.6072 -3.17488 2.66991
thorax -5.67164 -1.15722 2.68787
lowerneck -10.5597 -2.2424 -5.71821
upperneck 26.6416 -3.11485 6.43059
head 10.4323 -1.02688 2.94975
rclavicle 1.00386e-014 -3.97569e-014
rhumerus 24.5789 23.9089 -51.0058
rradius 90.3585
rwrist 3.60276
rhand -2.04048 4.80957
rfingers 7.12502
rthumb 23.6346 -23.7577
lclavicle 1.00386e-014 -3.97569e-014
lhumerus -0.0620223 -47.9144 69.7414
lradius 60.2523
lwrist 5.07144
lhand -9.8177 36.298
lfingers 7.12502
lthumb 16.1592 65.6445
rfemur -14.2743 12.08 18.4589
rtibia 14.355
rfoot -14.5451 -23.3816
rtoes -13.2078
lfemur 0 0 0
ltibia 0
lfoot 0 0
ltoes 0
